:SAMPLES-PER-SECOND 30
:FULLY-SPECIFIED
:DEGREES
302
root  -70.3099 41.6414 -0.908864 -70.0264 -88.3036 70.417
RightUpLeg  1.72127 -8.31932 -5.45382
RightLeg  5.58813 -6.75908 2.93235
RightFoot  -4.60942 0.00533903 -0.497828
RightToes  0.000481921 0.542163 -0.142578
Spine  -1.73126 -0.566707 -0.602822
Spine1  5.16002 -0.509049 0.402718
HEad  -4.68204 4.63736 -6.46148
LeftShoulder1  1.69148 -5.11744 -12.5306
LeftArm  -19.2052 15.3276 5.79534
LeftForeArm  18.3329 -13.6377 -1.60434
LeftHand  -0.25398 0.0180481 5.50724
RightShoulder  0.838912 0.69947 12.9574
RightArm  -28.8731 -4.73791 -3.86648
RightForeArm  -2.77898 7.20864 1.48842
RightHand  -0.935611 2.63883 -13.7425
LeftUpLeg  2.12279 4.53679 3.06168
LeftLeg  1.20352 11.2162 -3.45136
LeftFoot  -2.1186 0.115945 -1.27798
LeftToes  1.06246e-005 4.65868e-005 -8.65513e-006
303
root  -70.4103 41.6415 -0.891424 -66.8422 -88.3243 67.1761
RightUpLeg  1.97717 -8.30606 -5.45024
RightLeg  5.55127 -6.83656 2.90999
RightFoot  -4.65935 -0.00511685 -0.335432
RightToes  0.000481921 0.542163 -0.142578
Spine  -1.69266 -0.575069 -0.84523
Spine1  4.52342 -0.444459 0.155291
HEad  -4.42819 4.77642 -6.42769
LeftShoulder1  1.30795 -4.35532 -9.21561
LeftArm  -19.6468 14.559 4.95864
LeftForeArm  14.3453 -15.0514 -2.19273
LeftHand  -0.25398 0.0180481 5.50724
RightShoulder  0.696334 0.244264 11.4391
RightArm  -29.4266 -4.51997 -4.86919
RightForeArm  -2.66104 7.42191 1.39657
RightHand  -0.98474 3.11785 -13.6693
LeftUpLeg  2.32493 4.60262 3.13728
LeftLeg  1.23909 11.0464 -3.47031
LeftFoot  -2.27318 0.119301 -1.33016
LeftToes  1.06246e-005 4.65868e-005 -8.65513e-006
304
root  -70.5009 41.6413 -0.865572 -64.4731 -88.3739 64.7171
RightUpLeg  2.24773 -8.30268 -5.44978
RightLeg  5.51174 -6.87548 2.90947
RightFoot  -4.65632 -0.0120364 -0.227972
RightToes  0.000481921 0.542163 -0.142578
Spine  -1.7229 -0.59732 -0.887669
Spine1  4.14487 -0.383906 -0.196459
HEad  -4.17234 4.72747 -6.19516
LeftShoulder1  1.0249 -3.65745 -6.62347
LeftArm  -19.7914 13.7417 3.94392
LeftForeArm  11.4158 -16.1178 -2.69064
LeftHand  -0.25398 0.0180481 5.50724
RightShoulder  0.592009 -0.13971 10.3467
RightArm  -29.1865 -4.02086 -5.80181
RightForeArm  -3.57813 7.34176 1.56492
RightHand  -1.07701 3.65124 -14.0798
LeftUpLeg  2.58268 4.63455 3.18761
LeftLeg  1.18326 10.9546 -3.46383
LeftFoot  -2.33304 0.116508 -1.28673
LeftToes  1.06246e-005 4.65868e-005 -8.65513e-006
305
root  -70.5735 41.6409 -0.83869 -62.1367 -88.4 62.3492
RightUpLeg  2.42794 -8.26165 -5.43813
RightLeg  5.46039 -6.95904 2.87898
RightFoot  -4.64419 -0.0199089 -0.105726
RightToes  0.000481921 0.542163 -0.142578
Spine  -1.94046 -0.612305 -0.848851
Spine1  3.97467 -0.333217 -0.507171
HEad  -3.77536 4.545 -5.90913
LeftShoulder1  0.882876 -3.24807 -5.22537
LeftArm  -19.7232 12.7954 3.40986
LeftForeArm  10.2583 -16.5966 -2.96162
LeftHand  -0.25398 0.0180481 5.50724
RightShoulder  0.509297 -0.462844 9.39451
RightArm  -28.2791 -3.36287 -6.46119
RightForeArm  -5.04042 6.87734 1.89358
RightHand  -1.16105 3.99866 -14.6162
LeftUpLeg  2.735 4.6012 3.17018
LeftLeg  1.16419 10.9609 -3.39841
LeftFoot  -2.39427 0.112793 -1.229
LeftToes  1.06246e-005 4.65868e-005 -8.65513e-006
306
root  -70.6277 41.639 -0.809605 -59.7367 -88.3726 59.9152
RightUpLeg  2.59633 -8.24141 -5.47313
RightLeg  5.39181 -7.04612 2.84927
RightFoot  -4.66815 -0.0290436 0.036109
RightToes  0.000481921 0.542163 -0.142578
Spine  -2.27374 -0.650879 -0.922611
Spine1  4.07059 -0.350365 -0.594745
HEad  -3.35894 4.53803 -5.72224
LeftShoulder1  0.813159 -3.00289 -4.56901
LeftArm  -20.2373 11.7471 2.98802
LeftForeArm  11.9296 -16.3188 -2.82543
LeftHand  -0.25398 0.0180481 5.50724
RightShoulder  0.439431 -0.757291 8.56188
RightArm  -27.8219 -2.65223 -6.61265
RightForeArm  -5.41354 6.36283 2.03589
RightHand  -1.20737 4.29835 -14.737
LeftUpLeg  2.82657 4.54796 3.11059
LeftLeg  1.22214 10.9566 -3.32671
LeftFoot  -2.51429 0.115311 -1.26814
LeftToes  1.06246e-005 4.65868e-005 -8.65513e-006
307
root  -70.6645 41.6346 -0.777577 -57.6185 -88.318 57.6369
RightUpLeg  2.89657 -8.30493 -5.58541
RightLeg  5.30029 -7.06935 2.877
RightFoot  -4.71592 -0.0337018 0.108432
RightToes  0.000481921 0.542163 -0.142578
Spine  -2.4522 -0.730476 -1.28241
Spine1  4.33308 -0.50189 -0.201927
HEad  -2.98654 4.81245 -5.59938
LeftShoulder1  0.801581 -2.95427 -4.46928
LeftArm  -21.619 10.9028 2.64274
LeftForeArm  17.3153 -15.4144 -2.18937
LeftHand  -0.25398 0.0180481 5.50724
RightShoulder  0.391001 -0.962312 7.8664
RightArm  -28.3305 -2.01856 -6.27505
RightForeArm  -4.1852 6.08334 1.85354
RightHand  -1.21921 4.61463 -14.4323
LeftUpLeg  3.02418 4.54272 3.06777
LeftLeg  1.27873 10.8622 -3.31529
LeftFoot  -2.61464 0.116543 -1.28728
LeftToes  1.06246e-005 4.65868e-005 -8.65513e-006
308
root  -70.6827 41.6309 -0.74886 -56.8339 -88.2851 56.5713
RightUpLeg  3.28873 -8.40581 -5.72145
RightLeg  5.22687 -7.02288 2.93129
RightFoot  -4.75966 -0.0312889 0.0709706
RightToes  0.000481921 0.542163 -0.142578
Spine  -2.35824 -0.826781 -1.79348
Spine1  4.63895 -0.734685 0.488589
HEad  -2.84459 4.9905 -5.52286
LeftShoulder1  0.860867 -3.12987 -5.10823
LeftArm  -22.3155 10.3517 2.70939
LeftForeArm  23.5107 -14.1131 -1.46621
LeftHand  -0.25398 0.0180481 5.50724
RightShoulder  0.362762 -1.07328 7.35631
RightArm  -28.6935 -1.34234 -5.71829
RightForeArm  -2.8647 5.64286 1.67918
RightHand  -1.21849 4.85981 -14.0985
LeftUpLeg  3.34636 4.5827 3.05519
LeftLeg  1.30402 10.7577 -3.34298
LeftFoot  -2.66013 0.111557 -1.20978
LeftToes  1.06246e-005 4.65868e-005 -8.65513e-006
309
root  -70.6895 41.6274 -0.724879 -59.1495 -88.3106 58.6282
RightUpLeg  3.59164 -8.46418 -5.82738
RightLeg  5.20929 -6.89112 2.94693
RightFoot  -4.809 -0.0277183 0.0155326
RightToes  0.000481921 0.542163 -0.142578
Spine  -2.15077 -0.915812 -1.88185
Spine1  4.80663 -0.811559 0.417885
HEad  -2.8854 4.84823 -4.96275
LeftShoulder1  0.927855 -3.45247 -5.51443
LeftArm  -20.8013 10.1132 2.56253
LeftForeArm  25.5636 -12.2909 -1.3708
LeftHand  -0.25398 0.0180481 5.50724
RightShoulder  0.401178 -0.880265 7.76046
RightArm  -28.2211 -0.80288 -5.54492
RightForeArm  -1.99919 4.90584 1.674
RightHand  -1.15449 4.72291 -13.5503
LeftUpLeg  3.64724 4.61743 3.03839
LeftLeg  1.32992 10.7799 -3.35708
LeftFoot  -2.72135 0.1081 -1.15605
LeftToes  1.06246e-005 4.65868e-005 -8.65513e-006
310
root  -70.6964 41.6227 -0.698245 -64.9436 -88.3862 64.3061
RightUpLeg  3.71256 -8.48159 -5.90848
RightLeg  5.20772 -6.6511 2.93801
RightFoot  -4.87737 -0.0295413 0.0438368
RightToes  0.000481921 0.542163 -0.142578
Spine  -2.04969 -0.900648 -1.62544
Spine1  4.80273 -0.707734 -0.0357597
HEad  -3.08429 4.44729 -4.30808
LeftShoulder1  1.03423 -3.97912 -6.06502
LeftArm  -18.6886 9.9502 2.49075
LeftForeArm  25.5328 -9.93262 -1.63196
LeftHand  -0.25398 0.0180481 5.50724
RightShoulder  0.447645 -0.629852 8.08868
RightArm  -27.2153 -0.7145 -5.1424
RightForeArm  -0.587575 4.13492 1.72986
RightHand  -1.02508 4.3457 -12.5211
LeftUpLeg  3.80232 4.62272 2.99343
LeftLeg  1.36343 10.9511 -3.35184
LeftFoot  -2.82901 0.109173 -1.17273
LeftToes  1.06246e-005 4.65868e-005 -8.65513e-006
311
root  -70.7031 41.6179 -0.667291 -71.7626 -88.4646 71.1489
RightUpLeg  3.70063 -8.50219 -5.97807
RightLeg  5.16255 -6.37467 2.96058
RightFoot  -4.94078 -0.0351311 0.130623
RightToes  0.000481921 0.542163 -0.142578
Spine  -2.15922 -0.867426 -1.47889
Spine1  4.99051 -0.654043 -0.163251
HEad  -3.61149 4.18586 -3.97933
LeftShoulder1  1.10516 -4.13715 -6.78785
LeftArm  -17.2767 9.59313 2.23115
LeftForeArm  24.8994 -7.64694 -1.84455
LeftHand  -0.25398 0.0180481 5.50724
RightShoulder  0.456276 -0.578732 8.111
RightArm  -26.3244 -0.573259 -4.49638
RightForeArm  1.82871 3.33924 1.70294
RightHand  -0.905489 4.19903 -11.2737
LeftUpLeg  3.80208 4.60512 2.93022
LeftLeg  1.39055 11.1747 -3.3369
LeftFoot  -2.92747 0.107391 -1.14503
LeftToes  1.06246e-005 4.65868e-005 -8.65513e-006
312
root  -70.6997 41.6144 -0.642018 -77.0022 -88.5176 76.4714
RightUpLeg  3.62919 -8.52319 -6.0199
RightLeg  5.09213 -6.174 3.00814
RightFoot  -4.97714 -0.0388533 0.18841
RightToes  0.000481921 0.542163 -0.142578
Spine  -2.19072 -0.856237 -1.51757
Spine1  5.06163 -0.676958 -0.0361732
HEad  -4.12709 4.08678 -3.8421
LeftShoulder1  1.13867 -4.12613 -7.29975
LeftArm  -16.6266 9.40582 1.85664
LeftForeArm  24.5856 -5.85667 -1.85829
LeftHand  -0.25398 0.0180481 5.50724
RightShoulder  0.467568 -0.522283 8.20534
RightArm  -25.7102 -0.42056 -4.06796
RightForeArm  4.34769 2.53791 1.58469
RightHand  -0.825419 4.20079 -10.306
LeftUpLeg  3.71551 4.57378 2.86915
LeftLeg  1.41241 11.3668 -3.30583
LeftFoot  -2.98536 0.101819 -1.05842
LeftToes  1.06246e-005 4.65868e-005 -8.65513e-006
313
root  -70.6884 41.6109 -0.62815 -81.5803 -88.5308 81.1454
RightUpLeg  3.51078 -8.52855 -6.04946
RightLeg  5.06855 -6.02735 3.03458
RightFoot  -5.01454 -0.0404617 0.21338
RightToes  0.000481921 0.542163 -0.142578
Spine  -2.16837 -0.813951 -1.66576
Spine1  5.0895 -0.692681 0.215416
HEad  -4.47654 3.95518 -3.75215
LeftShoulder1  1.18854 -4.17048 -7.92907
LeftArm  -16.1357 9.37752 1.91162
LeftForeArm  24.0587 -4.59854 -1.87933
LeftHand  -0.25398 0.0180481 5.50724
RightShoulder  0.46512 -0.542891 8.23386
RightArm  -25.5819 -0.373991 -3.73962
RightForeArm  5.74836 1.92693 1.41014
RightHand  -0.744608 3.73106 -9.77632
LeftUpLeg  3.61911 4.52435 2.79815
LeftLeg  1.39953 11.548 -3.27247
LeftFoot  -3.02272 0.100528 -1.03835
LeftToes  1.06246e-005 4.65868e-005 -8.65513e-006
314
root  -70.6828 41.608 -0.619048 -87.1241 -88.4756 86.8285
RightUpLeg  3.31434 -8.54866 -6.1289
RightLeg  5.12139 -5.83276 3.03417
RightFoot  -5.08959 -0.04418 0.271104
RightToes  0.000481921 0.542163 -0.142578
Spine  -2.26732 -0.743766 -1.71086
Spine1  5.15364 -0.600137 0.133446
HEad  -4.59932 3.76153 -3.36433
LeftShoulder1  1.20763 -4.24672 -8.03513
LeftArm  -15.6894 9.60409 1.9464
LeftForeArm  23.4291 -3.89858 -1.93915
LeftHand  -0.25398 0.0180481 5.50724
RightShoulder  0.47647 -0.524942 8.55572
RightArm  -25.6833 -0.54537 -3.76454
RightForeArm  5.56745 1.65094 1.29485
RightHand  -0.650573 2.69747 -9.58999
LeftUpLeg  3.53523 4.43919 2.67175
LeftLeg  1.27909 11.7787 -3.27549
LeftFoot  -3.02814 0.104322 -1.09732
LeftToes  1.06246e-005 4.65868e-005 -8.65513e-006
315
root  -70.6751 41.608 -0.615261 -90.3655 -88.42 90.1443
RightUpLeg  3.2106 -8.55435 -6.18707
RightLeg  5.13274 -5.70048 3.01761
RightFoot  -5.14681 -0.05022 0.364866
RightToes  0.000481921 0.542163 -0.142578
Spine  -2.25864 -0.691342 -1.83351
Spine1  5.18875 -0.5453 0.155113
HEad  -4.58563 3.61542 -2.91345
LeftShoulder1  1.17692 -4.14063 -7.82677
LeftArm  -15.6436 9.90534 1.84783
LeftForeArm  23.2672 -3.7757 -1.90165
LeftHand  -0.25398 0.0180481 5.50724
RightShoulder  0.47086 -0.595473 8.77121
RightArm  -25.8452 -0.7578 -3.84643
RightForeArm  4.57693 1.64856 1.26439
RightHand  -0.590857 1.79277 -9.7393
LeftUpLeg  3.51672 4.39853 2.59541
LeftLeg  1.14409 11.9054 -3.31598
LeftFoot  -3.0016 0.105777 -1.11994
LeftToes  1.06246e-005 4.65868e-005 -8.65513e-006
316
root  -70.6603 41.608 -0.615824 -90.1458 -88.359 89.9791
RightUpLeg  3.12683 -8.56607 -6.23299
RightLeg  5.13885 -5.68689 2.99189
RightFoot  -5.17511 -0.0548256 0.436357
RightToes  0.000481921 0.542163 -0.142578
Spine  -2.07825 -0.671188 -2.09715
Spine1  4.9725 -0.566369 0.390325
HEad  -4.53238 3.64844 -2.51986
LeftShoulder1  1.13507 -4.00851 -7.50458
LeftArm  -15.8304 10.2938 1.74693
LeftForeArm  23.4255 -4.03674 -1.80062
LeftHand  -0.25398 0.0180481 5.50724
RightShoulder  0.458193 -0.670902 8.74991
RightArm  -25.8907 -0.886625 -3.87318
RightForeArm  3.83788 1.42648 1.23578
RightHand  -0.611908 1.71609 -10.1682
LeftUpLeg  3.49123 4.35998 2.52749
LeftLeg  1.01914 11.9444 -3.36152
LeftFoot  -2.92866 0.10282 -1.07398
LeftToes  1.06246e-005 4.65868e-005 -8.65513e-006
